#!OML:ASF E:\Style4\Style4.ASF
:FULLY-SPECIFIED
:DEGREES
1860
root -0.424936 17.852 -2.30069 -2.28842 -1.67202 2.1119
lowerback 5.75056 1.89588 0.1727
upperback 3.17853 2.5252 -1.13531
thorax 0.107022 1.27466 -1.40048
lowerneck -0.750845 -3.01183 -4.85073
upperneck 15.313 -4.24471 3.283
head 4.88878 -2.1581 1.62619
rclavicle 1.15481e-014 4.16205e-016
rhumerus 73.9547 -20.356 -29.4686
rradius 61.8203
rwrist -69.8935
rhand -11.5156 19.5872
rfingers 7.12502
rthumb 14.5237 -9.88446
lclavicle 1.15481e-014 4.16205e-016
lhumerus 79.3267 17.0026 36.4836
lradius 62.9423
lwrist 63.4232
lhand -2.75984 23.6554
lfingers 7.12502
lthumb 22.9444 52.3101
rfemur -10.7759 2.30578 17.2811
rtibia 29.9752
rfoot -16.2953 -12.3638
rtoes -8.42968
lfemur -6.42957 0.373752 -20.8141
ltibia 26.2981
lfoot -18.0362 11.5281
ltoes -12.7628
1861
root -0.419452 17.8522 -2.30521 -2.30948 -1.66965 2.21442
lowerback 5.77692 1.90018 0.0380148
upperback 3.19697 2.52435 -1.12291
thorax 0.104888 1.27248 -1.31303
lowerneck -0.691837 -3.02366 -4.92936
upperneck 15.1783 -4.25737 3.29215
head 4.83998 -2.16847 1.64267
rclavicle 2.41003e-014 -5.82688e-015
rhumerus 73.8741 -20.3076 -29.3721
rradius 62.0147
rwrist -70.0286
rhand -11.5146 19.4738
rfingers 7.12502
rthumb 14.5247 -9.99773
lclavicle 2.41003e-014 -5.82688e-015
lhumerus 79.2961 16.913 36.5944
lradius 62.8853
lwrist 63.2079
lhand -2.7068 23.5628
lfingers 7.12502
lthumb 22.9953 52.2112
rfemur -10.7857 2.33234 17.1411
rtibia 30.0068
rfoot -16.3303 -12.3322
rtoes -8.21982
lfemur -6.3971 0.377349 -20.9471
ltibia 26.2602
lfoot -18.0407 11.5509
ltoes -13.0814
1862
root -0.414752 17.8526 -2.30917 -2.29203 -1.712 2.21767
lowerback 5.77772 1.90742 0.00752839
upperback 3.18926 2.53247 -1.0985
thorax 0.094232 1.27586 -1.2716
lowerneck -0.605249 -3.03202 -4.9904
upperneck 15.0626 -4.26914 3.30871
head 4.7921 -2.17734 1.65901
rclavicle 3.51756e-015 -2.14066e-014
rhumerus 73.761 -20.2267 -29.2543
rradius 62.1877
rwrist -70.1261
rhand -11.5123 19.4854
rfingers 7.12502
rthumb 14.5269 -9.98595
lclavicle 3.51756e-015 -2.14066e-014
lhumerus 79.1941 16.8542 36.5789
lradius 62.8523
lwrist 63.106
lhand -2.66301 23.5134
lfingers 7.12502
lthumb 23.0373 52.1565
rfemur -10.8344 2.39043 17.1167
rtibia 30.0126
rfoot -16.336 -12.3069
rtoes -8.10671
lfemur -6.40404 0.401802 -20.9697
ltibia 26.2187
lfoot -18.0256 11.5769
ltoes -13.0239
1863
root -0.41182 17.8534 -2.31536 -2.25832 -1.77848 2.18071
lowerback 5.75817 1.94256 0.00789108
upperback 3.18438 2.57948 -1.06132
thorax 0.0993655 1.29904 -1.23558
lowerneck -0.494211 -3.05334 -5.00459
upperneck 14.9359 -4.29828 3.29999
head 4.73605 -2.19368 1.65947
rclavicle -2.14253e-014 7.8023e-015
rhumerus 73.5722 -20.1838 -29.0558
rradius 62.3185
rwrist -70.1554
rhand -11.5391 19.6948
rfingers 7.12502
rthumb 14.5012 -9.77841
lclavicle -2.14253e-014 7.8023e-015
lhumerus 79.0616 16.8493 36.4561
lradius 62.9243
lwrist 63.171
lhand -2.65579 23.4967
lfingers 7.12502
lthumb 23.0443 52.139
rfemur -10.8989 2.48933 17.159
rtibia 30.0028
rfoot -16.2828 -12.3337
rtoes -8.12321
lfemur -6.45127 0.458399 -20.9294
ltibia 26.1939
lfoot -17.99 11.5788
ltoes -13.1543
1864
root -0.407595 17.855 -2.32134 -2.27012 -1.80012 2.20969
lowerback 5.76215 1.97942 -0.0267772
upperback 3.21689 2.6271 -1.06184
thorax 0.130104 1.32263 -1.21872
lowerneck -0.497197 -3.07332 -4.96749
upperneck 14.8942 -4.3254 3.2956
head 4.72397 -2.205 1.65083
rclavicle -4.09062e-014 8.29926e-015
rhumerus 73.393 -20.2081 -28.8827
rradius 62.4226
rwrist -70.0956
rhand -11.5628 19.7035
rfingers 7.12502
rthumb 14.4783 -9.77136
lclavicle -4.09062e-014 8.29926e-015
lhumerus 79.0147 16.8467 36.3837
lradius 63.0163
lwrist 63.3364
lhand -2.71593 23.5133
lfingers 7.12502
lthumb 22.9866 52.1627
rfemur -10.8951 2.5476 17.1174
rtibia 29.9776
rfoot -16.2595 -12.3491
rtoes -8.21764
lfemur -6.4677 0.480573 -20.9692
ltibia 26.2036
lfoot -17.9802 11.5523
ltoes -13.1479
1865
root -0.402645 17.8546 -2.32831 -2.272 -1.81471 2.24065
lowerback 5.77989 1.99912 -0.0485144
upperback 3.24267 2.65229 -1.07172
thorax 0.146817 1.33516 -1.21817
lowerneck -0.506751 -3.08648 -4.89646
upperneck 14.8345 -4.33721 3.23682
head 4.70503 -2.20993 1.62049
rclavicle -2.28696e-014 1.04859e-014
rhumerus 73.2503 -20.2088 -28.7483
rradius 62.5512
rwrist -70.0535
rhand -11.7406 19.6719
rfingers 7.12502
rthumb 14.307 -9.81524
lclavicle -2.28696e-014 1.04859e-014
lhumerus 78.9296 16.8661 36.2149
lradius 63.1276
lwrist 63.5623
lhand -2.87911 23.4984
lfingers 7.12502
lthumb 22.83 52.1672
rfemur -10.924 2.548 17.0695
rtibia 29.966
rfoot -16.1952 -12.3928
rtoes -8.54935
lfemur -6.51026 0.516357 -21.0159
ltibia 26.2342
lfoot -17.9417 11.5677
ltoes -13.0996
1866
root -0.396087 17.8546 -2.33497 -2.23361 -1.85951 2.20825
lowerback 5.76846 2.00772 -0.0242269
upperback 3.24243 2.66507 -1.0447
thorax 0.152973 1.34163 -1.20427
lowerneck -0.475955 -3.08973 -4.89267
upperneck 14.7588 -4.33728 3.20427
head 4.67599 -2.21168 1.61058
rclavicle -9.56962e-015 8.84592e-015
rhumerus 73.1306 -20.1522 -28.5893
rradius 62.6743
rwrist -69.95
rhand -11.9062 19.6946
rfingers 7.12502
rthumb 14.1474 -9.8037
lclavicle -9.56962e-015 8.84592e-015
lhumerus 78.7311 16.9211 35.9787
lradius 63.2577
lwrist 63.7389
lhand -2.86352 23.5148
lfingers 7.12502
lthumb 22.8449 52.1818
rfemur -10.9975 2.53976 17.079
rtibia 29.9411
rfoot -16.1348 -12.3587
rtoes -8.64919
lfemur -6.58418 0.532172 -20.9988
ltibia 26.2642
lfoot -18.0058 11.5373
ltoes -12.5284
1867
root -0.390129 17.8546 -2.34217 -2.23313 -1.86661 2.13976
lowerback 5.79885 1.99813 0.038046
upperback 3.24797 2.65531 -1.00363
thorax 0.142464 1.33716 -1.19749
lowerneck -0.421364 -3.08719 -4.93753
upperneck 14.7012 -4.33229 3.20041
head 4.64998 -2.21222 1.6181
rclavicle -3.69926e-015 0
rhumerus 72.9887 -20.1062 -28.3881
rradius 62.7953
rwrist -69.8555
rhand -12.0815 19.6932
rfingers 7.12502
rthumb 13.9784 -9.81684
lclavicle -3.69926e-015 0
lhumerus 78.5256 16.9732 35.7561
lradius 63.374
lwrist 63.8571
lhand -2.74027 23.6152
lfingers 7.12502
lthumb 22.9632 52.2675
rfemur -10.9983 2.54535 17.1358
rtibia 29.8948
rfoot -16.0862 -12.3659
rtoes -8.62518
lfemur -6.6237 0.524081 -20.9391
ltibia 26.2981
lfoot -18.0194 11.4866
ltoes -12.3284
1868
root -0.384546 17.8562 -2.34736 -2.2323 -1.84182 2.07241
lowerback 5.82422 1.97489 0.108626
upperback 3.24792 2.62781 -0.975922
thorax 0.129622 1.32402 -1.20802
lowerneck -0.391818 -3.0725 -4.8906
upperneck 14.7004 -4.30745 3.13504
head 4.64143 -2.20132 1.59187
rclavicle -4.07633e-014 1.0635e-014
rhumerus 72.8161 -20.0609 -28.1708
rradius 62.9262
rwrist -69.901
rhand -12.1339 19.6285
rfingers 7.12502
rthumb 13.928 -9.88507
lclavicle -4.07633e-014 1.0635e-014
lhumerus 78.3485 16.9853 35.5638
lradius 63.4637
lwrist 63.9276
lhand -2.63129 23.7255
lfingers 7.12502
lthumb 23.0678 52.3648
rfemur -10.964 2.55175 17.1923
rtibia 29.8156
rfoot -15.9938 -12.4083
rtoes -8.78727
lfemur -6.66376 0.49385 -20.8819
ltibia 26.3348
lfoot -17.9932 11.4939
ltoes -12.6292
1869
root -0.378602 17.8583 -2.35235 -2.21312 -1.87028 2.07395
lowerback 5.83622 1.98586 0.158181
upperback 3.24254 2.6446 -1.00286
thorax 0.121376 1.33325 -1.26483
lowerneck -0.373809 -3.07578 -4.83853
upperneck 14.7088 -4.31585 3.13862
head 4.64016 -2.20267 1.58434
rclavicle 5.60014e-015 -9.19379e-016
rhumerus 72.6221 -20.02 -27.9685
rradius 62.9933
rwrist -69.9545
rhand -12.25 19.7391
rfingers 7.12502
rthumb 13.816 -9.78208
lclavicle 5.60014e-015 -9.19379e-016
lhumerus 78.2572 16.9388 35.4087
lradius 63.5564
lwrist 64.0522
lhand -2.48245 23.8
lfingers 7.12502
lthumb 23.2106 52.4214
rfemur -10.9849 2.58467 17.1687
rtibia 29.7619
rfoot -15.9493 -12.404
rtoes -8.80519
lfemur -6.70096 0.510047 -20.9017
ltibia 26.3349
lfoot -17.9983 11.4849
ltoes -12.3907
1870
root -0.372914 17.8602 -2.35679 -2.17394 -1.88445 2.0114
lowerback 5.81264 1.96938 0.238391
upperback 3.2569 2.62694 -0.976343
thorax 0.151192 1.32538 -1.28022
lowerneck -0.414493 -3.05964 -4.91573
upperneck 14.6992 -4.29521 3.1912
head 4.64591 -2.19345 1.61353
rclavicle -6.23066e-015 3.23025e-015
rhumerus 72.5066 -19.9611 -27.8154
rradius 63.131
rwrist -70.0017
rhand -12.3859 19.7911
rfingers 7.12502
rthumb 13.6851 -9.73896
lclavicle -6.23066e-015 3.23025e-015
lhumerus 78.066 16.9658 35.2364
lradius 63.7078
lwrist 64.1761
lhand -2.48753 23.7558
lfingers 7.12502
lthumb 23.2057 52.3778
rfemur -11.0171 2.58945 17.2202
rtibia 29.7157
rfoot -15.9159 -12.4074
rtoes -8.84454
lfemur -6.75351 0.524601 -20.8523
ltibia 26.329
lfoot -17.969 11.5216
ltoes -12.571
